<svg xmlns="http://www.w3.org/2000/svg" viewBox="0 0 529.76 659.69"><defs><style>.a{fill:#010101;}</style></defs><path class="a" d="M62.87,717.12a7,7,0,0,0,3.35-.92q.78-.66.78-3.3V692c0-1.71-.25-2.81-.76-3.3s-1.63-.8-3.37-.92v-.87H75.54A25,25,0,0,1,86.37,689q8,3.78,8,13.54a16,16,0,0,1-1.43,6.68,13.69,13.69,0,0,1-4.33,5.34,14.3,14.3,0,0,1-3.81,2.09A25.62,25.62,0,0,1,75.93,718H62.87Zm9.46-1.24a4.78,4.78,0,0,0,2.33.37,17.16,17.16,0,0,0,9.07-2.18q5.46-3.36,5.46-11.46,0-7.25-4.5-10.89-3.85-3.12-10.21-3.12a4.58,4.58,0,0,0-2.15.34c-.37.23-.56.74-.56,1.52v23.91A1.7,1.7,0,0,0,72.33,715.88Z" transform="translate(-43.42 -68.58)"/><path class="a" d="M108.86,707.87a50.8,50.8,0,0,1,8.42-3.74v-2a8.18,8.18,0,0,0-.46-3.26q-.78-1.53-3.24-1.53a4.4,4.4,0,0,0-2.22.59,1.89,1.89,0,0,0-1.06,1.7,6.08,6.08,0,0,0,.12.93,7.88,7.88,0,0,1,.11.84,1.9,1.9,0,0,1-.85,1.79,2.12,2.12,0,0,1-1.15.3,1.94,1.94,0,0,1-1.58-.68,2.3,2.3,0,0,1-.55-1.5,4.8,4.8,0,0,1,2-3.37,8.56,8.56,0,0,1,5.82-1.75q4.45,0,6,2.89a10.06,10.06,0,0,1,.85,4.61V713a6.28,6.28,0,0,0,.18,1.83,1.2,1.2,0,0,0,1.24.9,2.18,2.18,0,0,0,.87-.16,9,9,0,0,0,1.2-.79v1.2A7.53,7.53,0,0,1,123,717.4a4.6,4.6,0,0,1-2.61.87,2.55,2.55,0,0,1-2.26-1,4.45,4.45,0,0,1-.77-2.41,21.85,21.85,0,0,1-3,2.25,7.76,7.76,0,0,1-4,1.24A4.78,4.78,0,0,1,107,717a4.69,4.69,0,0,1-1.44-3.52Q105.53,710.1,108.86,707.87Zm8.42-2.59a20.43,20.43,0,0,0-4.36,1.93c-2.21,1.36-3.31,2.91-3.31,4.63a3.53,3.53,0,0,0,1.38,3.08,3.34,3.34,0,0,0,2,.64,5.45,5.45,0,0,0,2.9-.85,2.49,2.49,0,0,0,1.39-2.15Z" transform="translate(-43.42 -68.58)"/><path class="a" d="M133.34,717.35a5.78,5.78,0,0,0,3.1-.84c.43-.4.64-1.5.64-3.29v-11a6.82,6.82,0,0,0-.21-2.06,1.37,1.37,0,0,0-1.44-.94,2.63,2.63,0,0,0-.49,0c-.17,0-.63.16-1.39.37V699l1-.32q4-1.3,5.6-2a3.08,3.08,0,0,1,.83-.27,1.27,1.27,0,0,1,0,.34v16.48c0,1.75.21,2.84.63,3.28a4.63,4.63,0,0,0,2.85.85V718H133.34ZM137,686.66a2.4,2.4,0,0,1,3.38,0,2.32,2.32,0,0,1,.7,1.71A2.39,2.39,0,0,1,137,690a2.28,2.28,0,0,1-.69-1.67A2.36,2.36,0,0,1,137,686.66Z" transform="translate(-43.42 -68.58)"/><path class="a" d="M154.2,717.35a5.41,5.41,0,0,0,2.89-.86,3.3,3.3,0,0,0,.76-2.56V691.51a6.11,6.11,0,0,0-.25-2.09,1.86,1.86,0,0,0-1.86-1,3.53,3.53,0,0,0-.7.07c-.26,0-.57.11-1,.2V688q3.1-.83,7.46-2.21a.18.18,0,0,1,.2.14,3.6,3.6,0,0,1,0,.6V714a3.46,3.46,0,0,0,.69,2.59,5.41,5.41,0,0,0,2.85.74V718H154.2Z" transform="translate(-43.42 -68.58)"/><path class="a" d="M174.69,696.9h9.69v.65a5.64,5.64,0,0,0-1.7.21c-.71.2-1.06.6-1.06,1.19a2,2,0,0,0,.12.67,10.14,10.14,0,0,0,.41,1l5.31,11.49,4.37-11.58a7.73,7.73,0,0,0,.22-.84,5,5,0,0,0,.15-.9,1,1,0,0,0-.41-.89,2.21,2.21,0,0,0-1.06-.33l-.71,0v-.65h6.31v.65a2.16,2.16,0,0,0-1.41.66,4.77,4.77,0,0,0-.81,1.52l-7.23,19.14a29.53,29.53,0,0,1-3.61,7.18,5.29,5.29,0,0,1-4.36,2.23,4.79,4.79,0,0,1-2.41-.65,2.18,2.18,0,0,1-1.12-2,1.89,1.89,0,0,1,.67-1.5,2.47,2.47,0,0,1,1.69-.59,5.6,5.6,0,0,1,1.75.44,5.63,5.63,0,0,0,1.67.43c.85,0,1.74-1,2.67-3.11a13.54,13.54,0,0,0,1.41-4.12,2.11,2.11,0,0,0-.07-.5,3.22,3.22,0,0,0-.15-.52l-7.23-15.64a7.53,7.53,0,0,0-1.37-2.23,3.07,3.07,0,0,0-1.73-.7Z" transform="translate(-43.42 -68.58)"/><path class="a" d="M225.57,717.12a7,7,0,0,0,3.35-.92q.78-.66.78-3.3V692c0-1.71-.26-2.81-.76-3.3s-1.63-.8-3.37-.92v-.87h12.66A25.07,25.07,0,0,1,249.07,689q8,3.78,8,13.54a16.1,16.1,0,0,1-1.43,6.68,13.69,13.69,0,0,1-4.33,5.34,14.3,14.3,0,0,1-3.81,2.09,25.64,25.64,0,0,1-8.86,1.33H225.57Zm9.46-1.24a4.78,4.78,0,0,0,2.33.37,17.16,17.16,0,0,0,9.07-2.18q5.46-3.36,5.46-11.46,0-7.25-4.5-10.89-3.85-3.12-10.21-3.12a4.58,4.58,0,0,0-2.15.34c-.37.23-.56.74-.56,1.52v23.91A1.7,1.7,0,0,0,235,715.88Z" transform="translate(-43.42 -68.58)"/><path class="a" d="M282.94,698.71a8.18,8.18,0,0,1,2.43,6.34H270.8q.22,5.31,2.41,7.74a6.71,6.71,0,0,0,5.16,2.43,6.49,6.49,0,0,0,4.06-1.26,12.64,12.64,0,0,0,3.05-3.57l.81.27a13,13,0,0,1-3.52,5.4,8.78,8.78,0,0,1-6.33,2.49,7.73,7.73,0,0,1-6.66-3.26,12.52,12.52,0,0,1-2.36-7.51,12.21,12.21,0,0,1,2.73-8,8.75,8.75,0,0,1,7.12-3.35A8.07,8.07,0,0,1,282.94,698.71Zm-11,1.75a9.29,9.29,0,0,0-1.05,3.12h9.68a9.43,9.43,0,0,0-.87-3.42,4,4,0,0,0-3.76-2A4.4,4.4,0,0,0,271.94,700.46Z" transform="translate(-43.42 -68.58)"/><path class="a" d="M296,717.35a4.94,4.94,0,0,0,3.2-.9c.51-.53.77-1.65.77-3.34V698.37h-3.92v-1.54H300a16.7,16.7,0,0,1,1-6.12,6.89,6.89,0,0,1,6.92-4.8,8,8,0,0,1,3.62.8,2.44,2.44,0,0,1,1.6,2.16,1.94,1.94,0,0,1-.55,1.35,1.74,1.74,0,0,1-1.33.6,1.71,1.71,0,0,1-1.14-.4A6.78,6.78,0,0,1,309,689l-.39-.6a3.23,3.23,0,0,0-.75-.81,2,2,0,0,0-1.21-.34,2.33,2.33,0,0,0-2.35,1.73,6.94,6.94,0,0,0-.35,2.41v5.43h5.72v1.54h-5.72v14.74c0,1.72.24,2.83.7,3.31s1.69.79,3.66.93V718H296Z" transform="translate(-43.42 -68.58)"/><path class="a" d="M319.17,696.9h9.69v.65a5.64,5.64,0,0,0-1.7.21c-.71.2-1.06.6-1.06,1.19a2,2,0,0,0,.12.67,10.14,10.14,0,0,0,.41,1l5.31,11.49,4.37-11.58a7.73,7.73,0,0,0,.22-.84,5,5,0,0,0,.15-.9,1,1,0,0,0-.41-.89,2.21,2.21,0,0,0-1.06-.33l-.71,0v-.65h6.31v.65a2.14,2.14,0,0,0-1.41.66,4.58,4.58,0,0,0-.81,1.52l-7.23,19.14a29.53,29.53,0,0,1-3.61,7.18,5.29,5.29,0,0,1-4.36,2.23,4.79,4.79,0,0,1-2.41-.65,2.18,2.18,0,0,1-1.12-2,1.89,1.89,0,0,1,.67-1.5,2.47,2.47,0,0,1,1.69-.59,5.67,5.67,0,0,1,1.75.44,5.63,5.63,0,0,0,1.67.43c.85,0,1.74-1,2.67-3.11a13.54,13.54,0,0,0,1.41-4.12,2.11,2.11,0,0,0-.07-.5,3.22,3.22,0,0,0-.15-.52l-7.23-15.64a7.53,7.53,0,0,0-1.37-2.23,3.07,3.07,0,0,0-1.73-.7Z" transform="translate(-43.42 -68.58)"/><path class="a" d="M350.7,717.35a5.78,5.78,0,0,0,3.1-.84c.43-.4.64-1.5.64-3.29v-11a6.82,6.82,0,0,0-.21-2.06,1.37,1.37,0,0,0-1.44-.94,2.63,2.63,0,0,0-.49,0c-.16,0-.63.16-1.39.37V699l1-.32q4-1.3,5.6-2a3.08,3.08,0,0,1,.83-.27,1.27,1.27,0,0,1,.05.34v16.48c0,1.75.21,2.84.63,3.28a4.63,4.63,0,0,0,2.85.85V718H350.7Zm3.65-30.69a2.4,2.4,0,0,1,3.38,0,2.32,2.32,0,0,1,.7,1.71,2.39,2.39,0,0,1-4.08,1.67,2.28,2.28,0,0,1-.69-1.67A2.36,2.36,0,0,1,354.35,686.66Z" transform="translate(-43.42 -68.58)"/><path class="a" d="M371.45,717.35a4.23,4.23,0,0,0,2.28-.81,3.94,3.94,0,0,0,.65-2.72V702.16a5.43,5.43,0,0,0-.27-2,1.81,1.81,0,0,0-1.79-.87l-.43,0-.54.07v-.81c.63-.18,2.11-.65,4.46-1.42l2.15-.71c.11,0,.18,0,.2.11a1.39,1.39,0,0,1,0,.32v3.38a23.8,23.8,0,0,1,3.3-2.71,6.86,6.86,0,0,1,3.71-1.12,4.81,4.81,0,0,1,2.84.89c1.65,1.16,2.48,3.24,2.48,6.22v10.72a3.51,3.51,0,0,0,.66,2.38,2.87,2.87,0,0,0,2.2.76V718h-9.79v-.64a3.93,3.93,0,0,0,2.34-.93c.44-.46.66-1.48.66-3v-9.8a6.59,6.59,0,0,0-.73-3.27,2.82,2.82,0,0,0-2.69-1.3,5,5,0,0,0-2.74.92,16.3,16.3,0,0,0-2,1.75v12.85a2.66,2.66,0,0,0,.74,2.21,4,4,0,0,0,2.31.61V718h-10Z" transform="translate(-43.42 -68.58)"/><path class="a" d="M406.2,707.83a7.1,7.1,0,0,1-1.16-4,7.79,7.79,0,0,1,8.17-7.51,10.4,10.4,0,0,1,3.7.79,10.51,10.51,0,0,0,3.87.8l1.46,0,1.41,0h.28v1.86h-4c.27.64.49,1.2.64,1.67a9,9,0,0,1,.39,2.53,6.69,6.69,0,0,1-2.17,4.8,7.8,7.8,0,0,1-5.84,2.2,17.54,17.54,0,0,1-2.06-.21c-.45,0-1,.37-1.77,1.12a3.07,3.07,0,0,0-1.1,1.84c0,.49.53.85,1.61,1.08A11.18,11.18,0,0,0,412,715a31.75,31.75,0,0,1,8,.66,4.47,4.47,0,0,1,3.47,4.64c0,2.42-1.35,4.34-4.05,5.78a17.23,17.23,0,0,1-8.18,2.16,10.31,10.31,0,0,1-6-1.53c-1.47-1-2.2-2.08-2.2-3.2a2.7,2.7,0,0,1,.58-1.62,20.08,20.08,0,0,1,2.3-2.35l1.51-1.35.27-.28a6.8,6.8,0,0,1-1.57-.8,2,2,0,0,1-.91-1.63,3.13,3.13,0,0,1,.79-1.87,30.65,30.65,0,0,1,3.39-3.32A6,6,0,0,1,406.2,707.83Zm2.43,17.07a15.46,15.46,0,0,0,5,.74,12.76,12.76,0,0,0,6.2-1.32c1.59-.88,2.38-2,2.38-3.25,0-1-.64-1.71-1.93-2a23.33,23.33,0,0,0-4.53-.35l-1.79,0-1.73-.08c-.33,0-.88-.08-1.63-.19s-1.31-.2-1.68-.27c-.18,0-.63.48-1.34,1.44a4.71,4.71,0,0,0-1.09,2.71A2.73,2.73,0,0,0,408.63,724.9Zm7.29-15.76q1.38-1.11,1.38-3.84a13.27,13.27,0,0,0-1.12-4.91,3.81,3.81,0,0,0-3.7-2.73,3.09,3.09,0,0,0-3.1,2.14,7.7,7.7,0,0,0-.44,2.77,9.44,9.44,0,0,0,1.36,5,4,4,0,0,0,3.51,2.22A3.3,3.3,0,0,0,415.92,709.14Z" transform="translate(-43.42 -68.58)"/><path class="a" d="M458.74,690.39a15.76,15.76,0,0,1,21.36,0q4.71,4.51,4.71,12.05t-4.87,12.16a15,15,0,0,1-10.53,4,14.66,14.66,0,0,1-11-4.48A16.14,16.14,0,0,1,454,702.46Q454,694.93,458.74,690.39Zm3.51,23a9,9,0,0,0,14.28.09q3-3.45,3-11t-3-11.11a9.12,9.12,0,0,0-7.08-3.42,9,9,0,0,0-7.16,3.55q-2.92,3.54-2.93,11T462.25,713.42Z" transform="translate(-43.42 -68.58)"/><path class="a" d="M508.51,697a7.4,7.4,0,0,1,1.77,1.33v-7.3a4.09,4.09,0,0,0-.31-1.92c-.21-.35-.7-.53-1.48-.53l-.48,0-.92.09V688l1.88-.49,2.07-.57c.69-.2,1.29-.39,1.81-.57.25-.08.65-.22,1.22-.44l.14.05-.05,2.41c0,.87,0,1.77,0,2.69s0,1.84,0,2.75L514,712.56a4.26,4.26,0,0,0,.37,2.08q.38.6,2,.6h.51a4.26,4.26,0,0,0,.5-.06v.76L514,717.08l-3.6,1.35-.16-.21V715.4a12.24,12.24,0,0,1-2.23,2,7.18,7.18,0,0,1-3.87,1,7.75,7.75,0,0,1-6.33-3,10.86,10.86,0,0,1-2.42-7,13.06,13.06,0,0,1,2.91-8.54,8.83,8.83,0,0,1,7.1-3.57A6.47,6.47,0,0,1,508.51,697Zm.67,17.86a3,3,0,0,0,1.1-2v-9.85c0-2-.53-3.39-1.59-4.21a5.13,5.13,0,0,0-3.11-1.22,5,5,0,0,0-4.5,2.55,11.66,11.66,0,0,0-1.61,6.3,12.69,12.69,0,0,0,1.71,6.59,5.56,5.56,0,0,0,5.11,2.89A4,4,0,0,0,509.18,714.9Z" transform="translate(-43.42 -68.58)"/><path class="a" d="M539.77,697a7.6,7.6,0,0,1,1.77,1.33v-7.3a4.22,4.22,0,0,0-.31-1.92c-.21-.35-.7-.53-1.48-.53l-.49,0-.91.09V688l1.88-.49c.69-.18,1.37-.37,2.06-.57s1.3-.39,1.82-.57c.24-.08.65-.22,1.21-.44l.14.05-.05,2.41c0,.87,0,1.77,0,2.69s0,1.84,0,2.75l-.05,18.75a4.15,4.15,0,0,0,.37,2.08q.36.6,2,.6h.5a4.43,4.43,0,0,0,.51-.06v.76l-3.33,1.15-3.6,1.35-.16-.21V715.4a12.24,12.24,0,0,1-2.23,2,7.23,7.23,0,0,1-3.88,1,7.72,7.72,0,0,1-6.32-3,10.81,10.81,0,0,1-2.42-7,13.05,13.05,0,0,1,2.9-8.54,8.84,8.84,0,0,1,7.1-3.57A6.54,6.54,0,0,1,539.77,697Zm.66,17.86a2.93,2.93,0,0,0,1.11-2v-9.85c0-2-.54-3.39-1.6-4.21a5.1,5.1,0,0,0-3.11-1.22,5,5,0,0,0-4.5,2.55,11.65,11.65,0,0,0-1.6,6.3,12.69,12.69,0,0,0,1.71,6.59,5.55,5.55,0,0,0,5.1,2.89A4,4,0,0,0,540.43,714.9Z" transform="translate(-43.42 -68.58)"/><path class="a" d="M559.27,710.76H560a12,12,0,0,0,1.42,4,5.2,5.2,0,0,0,4.69,2.57,3.8,3.8,0,0,0,2.72-1,3.28,3.28,0,0,0,1-2.47,3.43,3.43,0,0,0-.57-1.86,5.9,5.9,0,0,0-2-1.74l-2.57-1.47a14.65,14.65,0,0,1-4.15-3.05,5.38,5.38,0,0,1-1.34-3.63A5.44,5.44,0,0,1,561,698a6.63,6.63,0,0,1,4.61-1.65,8.87,8.87,0,0,1,2.68.46,12.63,12.63,0,0,0,1.64.45,1.12,1.12,0,0,0,.59-.11,1,1,0,0,0,.33-.37h.55l.16,6.41h-.71a10.73,10.73,0,0,0-1.24-3.47,4.55,4.55,0,0,0-4.11-2.29,3.24,3.24,0,0,0-3.44,3.3q0,2.12,3.16,3.76l3,1.63c3.26,1.78,4.89,3.84,4.89,6.2a5.55,5.55,0,0,1-2,4.43,7.89,7.89,0,0,1-5.3,1.72,12.2,12.2,0,0,1-3.12-.46,14.85,14.85,0,0,0-2.06-.46.69.69,0,0,0-.48.2,1.31,1.31,0,0,0-.32.47h-.6Z" transform="translate(-43.42 -68.58)"/><path d="M321.15,232.17a40.34,40.34,0,0,0,2.19-3.51c19.82-42.06,52.45-70.27,95-87.73,24.24-10,49.54-15.59,75.59-17.92,4.87-.44,8.35-1.82,11.54-6.16C517,101.18,539.68,99,554.75,111.49c14.81,12.27,16.74,34.39,4.27,48.75-13.08,15.06-35.82,16.57-49.91,2.87-3.57-3.47-6.48-4-10.93-2.42-17.27,6.07-32.24,15.32-42.6,30.76-11.7,17.42-14.48,36-5.37,55.45,6.5,13.87,13.72,27.41,20.41,41.19,18.93,39,26.23,80.54,26.58,123.57,0,3.38-1,5.07-4.53,4.68-1-.1-2,0-3,0H138.21c-7.39,0-7.31,0-7.38-7.16-.42-45.09,8.94-88.06,25.33-130.07,13.42-34.39,14.06-69.69-1.35-104.13-9.34-20.86-23.66-37.28-44.5-47.55-3.54-1.75-5.94-1.76-9.17,1.23C86.69,142.08,63.87,140.21,51.29,125a34.53,34.53,0,1,1,55.22-41.39A9.64,9.64,0,0,0,114,88.31c51.28,6.5,97.5,25.25,137.91,57.7,27.91,22.42,50.36,49.39,66.6,81.4C319.23,228.84,320.06,230.21,321.15,232.17ZM176.24,139.85l-.91,1.3,3.49,6a156.74,156.74,0,0,1,21.31,80.14c0,26.75-6.2,52.13-16.17,76.75a248.93,248.93,0,0,0-17.21,71.62c-.35,3.87-.61,6.49,4.93,6.46q64.48-.33,129,0c4.08,0,5.05-1.39,5-5.2q-.21-31.48,0-63a150,150,0,0,0-13-61.64c-20.34-46.43-54.42-80-98.63-103.75C188.19,145.36,182.16,142.71,176.24,139.85Z" transform="translate(-43.42 -68.58)"/><path d="M314.14,451.81q90.47,0,180.93-.05c8,0,14.51,2.2,18.19,9.75a16.88,16.88,0,0,1-11.93,24,34.34,34.34,0,0,1-7,.48q-180.42,0-360.84,0c-11.15,0-18-4.66-20-13.55a16.73,16.73,0,0,1,13.2-20.19,47.66,47.66,0,0,1,8.46-.47Q224.68,451.79,314.14,451.81Z" transform="translate(-43.42 -68.58)"/><path d="M76.8,528.35a9.73,9.73,0,0,1,1.78-.43c21.65.26,43.38-.59,64.93,1.06,37.76,2.91,62.58,37.89,53.34,73.37a54.34,54.34,0,0,1-49.16,40c-24.06,1.55-48.27.82-72.41,1.08-.3,0-.6-.24-1.1-.46-1.16-3.13-.27-4.57,3.37-5,9.22-1.14,11.77-3.45,11.86-12.7q.41-40,0-80c-.08-8.14-2.17-9.92-10.13-11.64C76.3,533,76.3,533,76.8,528.35Zm34,51.51c0,12.82-.09,25.64,0,38.46.09,8.44,4,13.38,12.06,15.57a45,45,0,0,0,8.36,1.22c19.44,1.46,34.84-8.17,40.23-25.88,5-16.24,4.53-32.65-1.86-48.46-5.93-14.68-17-23.14-33.1-24.13-6.47-.4-13-.11-19.45-.46-4.67-.25-6.51,1.27-6.39,6.23C111,554.88,110.78,567.37,110.79,579.86Z" transform="translate(-43.42 -68.58)"/><path d="M252.44,643.63c-.93-3.41-.81-5.1,2.91-5.59,10.12-1.33,12.33-3.73,12.38-13.76q.21-38.71,0-77.44c-.05-9.32-1.5-10.66-10.58-13.38-1.32-.39-2.07-2.7-3.39-4.55,1.85-.6,2.46-1,3.07-1,21.64.24,43.35-.6,64.88,1,36.14,2.74,60.23,34.09,54.39,68.83-3.69,22-20.76,39-44.51,43.74a106.22,106.22,0,0,1-19.32,2c-18,.27-36,.1-54,.1ZM289,579.72c0,12.49-.11,25,0,37.47.12,10.76,5.67,16.56,16.43,17.58,1.49.14,3,.28,4.48.38,18.84,1.24,34-7.93,39.5-24.85s5.05-33.92-1.82-50.33c-6-14.23-17-22.35-32.64-23.32-6.64-.42-13.32-.14-20-.46-4.52-.22-6.19,1.46-6.11,6.07C289.11,554.75,289,567.24,289,579.72Z" transform="translate(-43.42 -68.58)"/><path d="M559.41,590.3c-.59,15.09-8.5,29.91-23.19,41-23.51,17.76-58.27,17.48-81.66-.44-25.62-19.62-30-54.2-10.18-80,26.93-35,85.66-31,107.52,7.28C556.91,567,559.47,576.73,559.41,590.3ZM534,586.82c.16-11-1.51-21.6-6.81-31.35C521,544,511.51,537.3,498.11,536.61c-14.71-.74-26.39,4.79-33.16,17.81-10.35,19.91-10.94,40.75-1.41,61.09,6.27,13.4,17.84,19.55,32.8,19.37,14.59-.18,25.09-6.81,31.79-19.52C532.82,606.47,534.25,596.79,534,586.82Z" transform="translate(-43.42 -68.58)"/><path d="M62.25,337.91c-5.73.08-10.12-4.07-10-9.48a9.8,9.8,0,0,1,9.58-9.54c5.49-.13,9.8,3.8,9.9,9A9.56,9.56,0,0,1,62.25,337.91Z" transform="translate(-43.42 -68.58)"/><path d="M573.14,327.92c0,6.14-3.56,9.94-9.26,10a9.28,9.28,0,0,1-9.72-9.65c0-5.7,4.07-9.5,9.92-9.37C569.39,319,573.17,322.78,573.14,327.92Z" transform="translate(-43.42 -68.58)"/></svg>